<svg width="20" height="17" viewBox="0 0 20 17" fill="none" xmlns="http://www.w3.org/2000/svg">
<rect width="20" height="17" fill="#191919"/>
<path d="M11.8182 5.18919C11.8182 5.08108 11.8485 4.97748 11.9091 4.87838C11.9697 4.77928 12.0379 4.71171 12.1136 4.67568C12.5682 4.47748 13.0341 4.32432 13.5114 4.21622C13.9886 4.10811 14.4848 4.05405 15 4.05405C15.3333 4.05405 15.6591 4.07658 15.9773 4.12162C16.2955 4.16667 16.6061 4.23423 16.9091 4.32432C17 4.36036 17.0833 4.42793 17.1591 4.52703C17.2348 4.62613 17.2727 4.73874 17.2727 4.86486C17.2727 5.06306 17.2159 5.21622 17.1023 5.32432C16.9886 5.43243 16.8485 5.45946 16.6818 5.40541C16.4242 5.31532 16.1553 5.24775 15.875 5.2027C15.5947 5.15766 15.303 5.13513 15 5.13513C14.5606 5.13513 14.1364 5.18468 13.7273 5.28378C13.3182 5.38288 12.9167 5.53153 12.5227 5.72973C12.3106 5.81982 12.1402 5.81532 12.0114 5.71622C11.8826 5.61712 11.8182 5.44144 11.8182 5.18919ZM11.8182 11.1351C11.8182 11.027 11.8485 10.9189 11.9091 10.8108C11.9697 10.7027 12.0379 10.6306 12.1136 10.5946C12.5682 10.3964 13.0341 10.2477 13.5114 10.1486C13.9886 10.0495 14.4848 10 15 10C15.3333 10 15.6591 10.0225 15.9773 10.0676C16.2955 10.1126 16.6061 10.1802 16.9091 10.2703C17 10.3063 17.0833 10.3739 17.1591 10.473C17.2348 10.5721 17.2727 10.6847 17.2727 10.8108C17.2727 11.009 17.2159 11.1622 17.1023 11.2703C16.9886 11.3784 16.8485 11.4054 16.6818 11.3514C16.4242 11.2613 16.1553 11.1937 15.875 11.1486C15.5947 11.1036 15.303 11.0811 15 11.0811C14.5606 11.0811 14.1364 11.1261 13.7273 11.2162C13.3182 11.3063 12.9167 11.4504 12.5227 11.6486C12.3106 11.7387 12.1402 11.7387 12.0114 11.6486C11.8826 11.5586 11.8182 11.3874 11.8182 11.1351ZM11.8182 8.16216C11.8182 8.05405 11.8485 7.95045 11.9091 7.85135C11.9697 7.75225 12.0379 7.68468 12.1136 7.64865C12.5682 7.45045 13.0341 7.2973 13.5114 7.18919C13.9886 7.08108 14.4848 7.02703 15 7.02703C15.3333 7.02703 15.6591 7.04955 15.9773 7.09459C16.2955 7.13964 16.6061 7.20721 16.9091 7.2973C17 7.33333 17.0833 7.4009 17.1591 7.5C17.2348 7.5991 17.2727 7.71171 17.2727 7.83784C17.2727 8.03604 17.2159 8.18919 17.1023 8.2973C16.9886 8.40541 16.8485 8.43243 16.6818 8.37838C16.4242 8.28829 16.1553 8.22072 15.875 8.17568C15.5947 8.13063 15.303 8.10811 15 8.10811C14.5606 8.10811 14.1364 8.15766 13.7273 8.25676C13.3182 8.35585 12.9167 8.5045 12.5227 8.7027C12.3106 8.79279 12.1402 8.78829 12.0114 8.68919C11.8826 8.59009 11.8182 8.41441 11.8182 8.16216ZM4.72727 13.5135C5.54545 13.5135 6.33712 13.6261 7.10227 13.8514C7.86742 14.0766 8.62121 14.4144 9.36364 14.8649V3.32432C8.68182 2.78378 7.94318 2.36486 7.14773 2.06757C6.35227 1.77027 5.54545 1.62162 4.72727 1.62162C4.15152 1.62162 3.58712 1.70721 3.03409 1.87838C2.48106 2.04955 1.92424 2.26126 1.36364 2.51351V14.2432C1.83333 13.991 2.36742 13.8063 2.96591 13.6892C3.56439 13.5721 4.15152 13.5135 4.72727 13.5135ZM10.7273 14.8649C11.4848 14.4144 12.2273 14.0766 12.9545 13.8514C13.6818 13.6261 14.4545 13.5135 15.2727 13.5135C15.8485 13.5135 16.4432 13.5676 17.0568 13.6757C17.6705 13.7838 18.197 13.9279 18.6364 14.1081V2.51351C18.1212 2.20721 17.5758 1.98198 17 1.83784C16.4242 1.69369 15.8485 1.62162 15.2727 1.62162C14.4545 1.62162 13.6629 1.77027 12.8977 2.06757C12.1326 2.36486 11.4091 2.78378 10.7273 3.32432V14.8649ZM10.0455 17C9.92424 17 9.81439 16.9865 9.71591 16.9595C9.61742 16.9324 9.5303 16.8829 9.45455 16.8108C8.74242 16.2883 7.98485 15.8829 7.18182 15.5946C6.37879 15.3063 5.56061 15.1622 4.72727 15.1622C4.16667 15.1622 3.62121 15.2432 3.09091 15.4054C2.56061 15.5676 2.0303 15.7658 1.5 16C1.15152 16.1982 0.814394 16.1712 0.488636 15.9189C0.162879 15.6667 0 15.3063 0 14.8378V2.32432C0 2.05405 0.0530303 1.80631 0.159091 1.58108C0.265151 1.35586 0.424242 1.18018 0.636364 1.05405C1.27273 0.693694 1.93561 0.427928 2.625 0.256757C3.31439 0.0855858 4.01515 0 4.72727 0C5.68182 0 6.60985 0.153153 7.51136 0.45946C8.41288 0.765766 9.25758 1.23423 10.0455 1.86486C10.8182 1.23423 11.6477 0.765766 12.5341 0.45946C13.4205 0.153153 14.3333 0 15.2727 0C15.9848 0 16.6818 0.0855858 17.3636 0.256757C18.0455 0.427928 18.7045 0.693694 19.3409 1.05405C19.553 1.18018 19.7159 1.35586 19.8295 1.58108C19.9432 1.80631 20 2.05405 20 2.32432V14.8378C20 15.3423 19.8295 15.7252 19.4886 15.9865C19.1477 16.2477 18.8106 16.2523 18.4773 16C17.9621 15.7477 17.4394 15.545 16.9091 15.3919C16.3788 15.2387 15.8333 15.1622 15.2727 15.1622C14.4545 15.1622 13.6515 15.3063 12.8636 15.5946C12.0758 15.8829 11.3333 16.2883 10.6364 16.8108C10.5606 16.8829 10.4735 16.9324 10.375 16.9595C10.2765 16.9865 10.1667 17 10.0455 17Z" fill="url(#paint0_linear_7_60)"/>
<defs>
<linearGradient id="paint0_linear_7_60" x1="10" y1="0" x2="10" y2="17" gradientUnits="userSpaceOnUse">
<stop stop-color="#E1B083"/>
<stop offset="1" stop-color="#D09164"/>
</linearGradient>
</defs>
</svg>
