<svg width="20" height="17" viewBox="0 0 20 17" fill="none" xmlns="http://www.w3.org/2000/svg">
<rect width="20" height="17" fill="#191919"/>
<path d="M11.3258 17C10.9721 17 10.7145 16.8938 10.553 16.6812C10.3916 16.4688 10.3723 16.2067 10.4954 15.895L13.8862 7.6075C13.9784 7.38083 14.1476 7.18958 14.3936 7.03375C14.6397 6.87792 14.8934 6.8 15.1548 6.8C15.4163 6.8 15.6738 6.87792 15.9276 7.03375C16.1813 7.18958 16.3543 7.38083 16.4466 7.6075L19.9066 15.81C20.045 16.1358 20.0296 16.4156 19.8604 16.6494C19.6913 16.8831 19.4068 17 19.007 17C18.8378 17 18.6764 16.9504 18.5226 16.8513C18.3688 16.7521 18.2612 16.6246 18.1996 16.4688L17.4384 14.3225H13.0096L12.1331 16.49C12.0716 16.6317 11.9639 16.7521 11.8102 16.8513C11.6564 16.9504 11.4949 17 11.3258 17ZM13.5171 12.835H16.7926L15.1779 8.7125H15.1318L13.5171 12.835ZM5.74361 5.5675C5.97428 5.93583 6.22801 6.29354 6.50482 6.64062C6.78162 6.98771 7.08148 7.34542 7.40442 7.71375C8.09642 7.04792 8.67309 6.35729 9.13442 5.64187C9.59576 4.92646 9.98789 4.17917 10.3108 3.4H0.922669C0.661246 3.4 0.442112 3.31854 0.265267 3.15563C0.0884225 2.99271 0 2.79083 0 2.55C0 2.30917 0.0884225 2.10729 0.265267 1.94437C0.442112 1.78146 0.661246 1.7 0.922669 1.7H6.45868V0.85C6.45868 0.609167 6.5471 0.407292 6.72395 0.244375C6.90079 0.0814583 7.11993 0 7.38135 0C7.64277 0 7.86191 0.0814583 8.03875 0.244375C8.2156 0.407292 8.30402 0.609167 8.30402 0.85V1.7H13.84C14.1015 1.7 14.3206 1.78146 14.4974 1.94437C14.6743 2.10729 14.7627 2.30917 14.7627 2.55C14.7627 2.79083 14.6743 2.99271 14.4974 3.15563C14.3206 3.31854 14.1015 3.4 13.84 3.4H12.1562C11.8179 4.3775 11.368 5.33729 10.8068 6.27938C10.2455 7.22146 9.55731 8.1175 8.74229 8.9675L11.0028 11.0712L10.3108 12.7925L7.38135 10.2L3.39081 13.8763C3.22165 14.0321 3.01405 14.11 2.76801 14.11C2.52196 14.11 2.31436 14.025 2.14521 13.855C1.96067 13.6992 1.8684 13.5079 1.8684 13.2812C1.8684 13.0546 1.96067 12.8562 2.14521 12.6862L6.20495 8.94625C5.80512 8.50708 5.42837 8.06437 5.07468 7.61812C4.72099 7.17188 4.39805 6.715 4.10588 6.2475C3.92134 5.93583 3.90596 5.66667 4.05974 5.44C4.21352 5.21333 4.49032 5.1 4.89014 5.1C5.0593 5.1 5.22461 5.14604 5.38608 5.23813C5.54755 5.33021 5.66672 5.44 5.74361 5.5675Z" fill="url(#paint0_linear_7_58)"/>
<defs>
<linearGradient id="paint0_linear_7_58" x1="10" y1="0" x2="10" y2="17" gradientUnits="userSpaceOnUse">
<stop stop-color="#E1B083"/>
<stop offset="1" stop-color="#D09164"/>
</linearGradient>
</defs>
</svg>
